<?xml version="1.0" encoding="utf-8"?>
<!-- Generator: Adobe Illustrator 25.0.0, SVG Export Plug-In . SVG Version: 6.00 Build 0)  -->
<svg version="1.1" id="Capa_1" xmlns="http://www.w3.org/2000/svg" xmlns:xlink="http://www.w3.org/1999/xlink" x="0px" y="0px"
	 viewBox="0 0 481.22 217.91" style="enable-background:new 0 0 481.22 217.91;" xml:space="preserve">
<style type="text/css">
	.st0{fill:url(#SVGID_1_);}
	.st1{fill:#FFFFFF;}
	.st2{fill:#1B3156;}
</style>
<radialGradient id="SVGID_1_" cx="41.1099" cy="18.7315" r="173.2172" gradientUnits="userSpaceOnUse">
	<stop  offset="0" style="stop-color:#1DADE4"/>
	<stop  offset="0.9726" style="stop-color:#2760AB"/>
</radialGradient>
<path class="st0" d="M129.65,14.92c-21.49,0-25.47,7.7-37.68,7.7c-12.21,0-16.19-7.7-37.68-7.7s-32.9,12.47-32.9,38.74
	c0,26.27,11.41,47.41,15.92,70.8s13,56.83,28.66,56.83s4.17-60.5,24.51-60.5c0.53,0,1.02-0.08,1.5-0.21
	c0.48,0.13,0.97,0.21,1.5,0.21c20.34,0,8.85,60.5,24.51,60.5c15.66,0,24.15-33.43,28.66-56.83s15.92-44.53,15.92-70.8
	C162.55,27.39,151.14,14.92,129.65,14.92z"/>
<path class="st1" d="M49.44,85.48c2.3-2.36,5.24,2.3,11.78,7.59c7.67,6.2,15.61,9.01,26.01,9.01c26.85,0,43.57-27.64,43.57-44.51
	c0-15.87-13.4-17.1-17.7-16.35c-5.77,1-9.94,5.37-16.51,5.37s-11.53-3.77-18.74-3.77c-9.01,0-14.2,9.12-14.48,17.03
	c-0.39,11.08,7.24,28.56,5.5,29.36c-1.74,0.8-10.58-18.65-10.58-29.91s7.37-22.65,19.43-22.38c8.42,0.19,11.66,3.75,17.7,3.75
	c6.03,0,10.66-5.77,19.98-5.77c10.99,0,22.92,6.23,22.92,21.65c0,14.66-13.48,53.57-51.08,53.57c-17.48,0-29.43-7.93-34.06-13.58
	C48.57,90.95,47.74,87.21,49.44,85.48z"/>
<g>
	<g>
		<path class="st2" d="M193.35,109.46V26.58H231c9,0,16.93,1.72,23.8,5.15c6.87,3.43,12.23,8.23,16.1,14.39
			c3.87,6.16,5.8,13.46,5.8,21.9c0,8.37-1.93,15.65-5.8,21.85c-3.87,6.2-9.24,11.01-16.1,14.45c-6.87,3.43-14.8,5.15-23.8,5.15
			H193.35z M212.53,93.72h17.52c5.52,0,10.32-1.05,14.39-3.14c4.06-2.09,7.22-5.07,9.47-8.94c2.25-3.87,3.37-8.41,3.37-13.62
			c0-5.29-1.12-9.85-3.37-13.68c-2.25-3.83-5.41-6.79-9.47-8.88c-4.07-2.09-8.86-3.14-14.39-3.14h-17.52V93.72z"/>
		<path class="st2" d="M330.81,110.88c-6.39,0-12.33-1.05-17.82-3.14c-5.49-2.09-10.24-5.07-14.27-8.94
			c-4.03-3.87-7.16-8.41-9.41-13.62c-2.25-5.21-3.37-10.93-3.37-17.17c0-6.23,1.12-11.96,3.37-17.17c2.25-5.21,5.41-9.75,9.47-13.62
			c4.06-3.87,8.82-6.85,14.27-8.94c5.45-2.09,11.41-3.14,17.88-3.14c7.18,0,13.68,1.24,19.48,3.73c5.8,2.49,10.67,6.14,14.62,10.95
			l-12.31,11.37c-2.84-3.24-6-5.66-9.47-7.28c-3.47-1.62-7.26-2.43-11.37-2.43c-3.87,0-7.42,0.63-10.66,1.89
			c-3.24,1.26-6.04,3.08-8.41,5.45c-2.37,2.37-4.2,5.17-5.51,8.41c-1.3,3.24-1.95,6.83-1.95,10.77c0,3.95,0.65,7.54,1.95,10.77
			c1.3,3.24,3.14,6.04,5.51,8.41c2.37,2.37,5.17,4.18,8.41,5.45c3.24,1.26,6.79,1.89,10.66,1.89c4.1,0,7.89-0.81,11.37-2.43
			c3.47-1.62,6.63-4.08,9.47-7.4l12.31,11.37c-3.95,4.82-8.82,8.49-14.62,11.01S338.08,110.88,330.81,110.88z"/>
		<path class="st2" d="M413.46,110.88c-6.55,0-12.61-1.07-18.17-3.2c-5.57-2.13-10.38-5.13-14.45-9c-4.07-3.87-7.22-8.41-9.47-13.62
			c-2.25-5.21-3.37-10.89-3.37-17.05s1.12-11.84,3.37-17.05c2.25-5.21,5.43-9.75,9.53-13.62c4.1-3.87,8.92-6.87,14.45-9
			c5.52-2.13,11.52-3.2,18-3.2c6.55,0,12.57,1.07,18.06,3.2c5.49,2.13,10.26,5.13,14.33,9c4.07,3.87,7.24,8.39,9.53,13.56
			c2.29,5.17,3.43,10.87,3.43,17.11c0,6.16-1.15,11.86-3.43,17.11c-2.29,5.25-5.47,9.79-9.53,13.62c-4.07,3.83-8.84,6.81-14.33,8.94
			C425.91,109.82,419.93,110.88,413.46,110.88z M413.34,94.54c3.71,0,7.12-0.63,10.24-1.89c3.12-1.26,5.86-3.08,8.23-5.45
			c2.37-2.37,4.2-5.17,5.51-8.41c1.3-3.24,1.95-6.83,1.95-10.77c0-3.95-0.65-7.54-1.95-10.77c-1.3-3.24-3.12-6.04-5.45-8.41
			c-2.33-2.37-5.07-4.18-8.23-5.45c-3.16-1.26-6.59-1.89-10.3-1.89c-3.71,0-7.12,0.63-10.24,1.89c-3.12,1.26-5.86,3.08-8.23,5.45
			c-2.37,2.37-4.2,5.17-5.51,8.41c-1.3,3.24-1.95,6.83-1.95,10.77c0,3.87,0.65,7.44,1.95,10.72c1.3,3.28,3.12,6.1,5.45,8.47
			c2.33,2.37,5.07,4.18,8.23,5.45C406.2,93.91,409.63,94.54,413.34,94.54z"/>
	</g>
</g>
<g>
	<g>
		<path class="st2" d="M194.86,154.6v-21.13h9.6c2.29,0,4.32,0.44,6.07,1.31c1.75,0.88,3.12,2.1,4.1,3.67
			c0.99,1.57,1.48,3.43,1.48,5.58c0,2.13-0.49,3.99-1.48,5.57c-0.99,1.58-2.35,2.81-4.1,3.68c-1.75,0.88-3.77,1.31-6.07,1.31H194.86
			z M199.75,150.59h4.47c1.41,0,2.63-0.27,3.67-0.8s1.84-1.29,2.42-2.28s0.86-2.14,0.86-3.47c0-1.35-0.29-2.51-0.86-3.49
			c-0.57-0.98-1.38-1.73-2.42-2.26c-1.04-0.53-2.26-0.8-3.67-0.8h-4.47V150.59z"/>
		<path class="st2" d="M222.9,154.6v-21.13h15.97v3.92h-11.11v13.28h11.5v3.92H222.9z M227.4,145.79v-3.8h10.17v3.8H227.4z"/>
		<path class="st2" d="M246.26,154.6v-21.13h4.04l12.46,15.21h-1.96v-15.21h4.83v21.13h-4.01l-12.5-15.21h1.96v15.21H246.26z"/>
		<path class="st2" d="M278.14,154.6v-17.14h-6.76v-3.98h18.41v3.98h-6.76v17.14H278.14z"/>
		<path class="st2" d="M291.69,154.6l9.42-21.13h4.83l9.45,21.13h-5.13l-7.73-18.65h1.93l-7.76,18.65H291.69z M296.39,150.07
			l1.3-3.71h10.87l1.33,3.71H296.39z"/>
		<path class="st2" d="M320.69,154.6v-21.13h4.89v17.14h10.59v3.98H320.69z"/>
		<path class="st2" d="M363.79,154.96c-1.63,0-3.14-0.27-4.54-0.8c-1.4-0.53-2.61-1.29-3.64-2.28s-1.83-2.14-2.4-3.47
			s-0.86-2.79-0.86-4.38c0-1.59,0.29-3.05,0.86-4.38c0.57-1.33,1.38-2.48,2.42-3.47c1.04-0.99,2.25-1.75,3.64-2.28
			c1.39-0.53,2.91-0.8,4.56-0.8c1.83,0,3.49,0.32,4.96,0.95s2.72,1.56,3.73,2.79l-3.14,2.9c-0.72-0.82-1.53-1.44-2.42-1.86
			c-0.89-0.41-1.85-0.62-2.9-0.62c-0.99,0-1.89,0.16-2.72,0.48c-0.83,0.32-1.54,0.78-2.14,1.39c-0.6,0.6-1.07,1.32-1.4,2.14
			c-0.33,0.83-0.5,1.74-0.5,2.75c0,1.01,0.17,1.92,0.5,2.75c0.33,0.83,0.8,1.54,1.4,2.14s1.32,1.07,2.14,1.39
			c0.82,0.32,1.73,0.48,2.72,0.48c1.05,0,2.01-0.21,2.9-0.62c0.89-0.41,1.69-1.04,2.42-1.89l3.14,2.9
			c-1.01,1.23-2.25,2.16-3.73,2.81C367.31,154.64,365.64,154.96,363.79,154.96z"/>
		<path class="st2" d="M375.44,154.6l9.42-21.13h4.83l9.45,21.13H394l-7.73-18.65h1.93l-7.76,18.65H375.44z M380.15,150.07l1.3-3.71
			h10.87l1.33,3.71H380.15z"/>
		<path class="st2" d="M404.45,154.6v-21.13h9.02c2.94,0,5.22,0.68,6.85,2.04s2.45,3.23,2.45,5.63c0,1.57-0.37,2.92-1.12,4.06
			c-0.74,1.14-1.8,2.01-3.17,2.61c-1.37,0.6-3,0.91-4.89,0.91h-6.43l2.17-2.14v8.03H404.45z M409.34,147.12l-2.17-2.29h6.16
			c1.51,0,2.64-0.33,3.38-0.98s1.12-1.55,1.12-2.7c0-1.17-0.37-2.07-1.12-2.72c-0.74-0.64-1.87-0.97-3.38-0.97h-6.16l2.17-2.32
			V147.12z M417.88,154.6l-5.28-7.67h5.22l5.34,7.67H417.88z"/>
		<path class="st2" d="M429.74,154.6v-21.13h15.97v3.92H434.6v13.28h11.5v3.92H429.74z M434.24,145.79v-3.8h10.17v3.8H434.24z"/>
		<path class="st2" d="M266.89,188.96c-1.67,0-3.21-0.27-4.63-0.81c-1.42-0.54-2.65-1.31-3.68-2.29c-1.04-0.99-1.84-2.14-2.42-3.47
			c-0.57-1.33-0.86-2.78-0.86-4.35c0-1.57,0.29-3.02,0.86-4.35s1.38-2.48,2.43-3.47s2.27-1.75,3.68-2.29
			c1.41-0.54,2.94-0.81,4.59-0.81c1.67,0,3.2,0.27,4.6,0.81s2.62,1.31,3.65,2.29c1.04,0.99,1.85,2.14,2.43,3.46
			c0.58,1.32,0.88,2.77,0.88,4.36c0,1.57-0.29,3.02-0.88,4.36c-0.58,1.34-1.39,2.5-2.43,3.47c-1.04,0.98-2.25,1.74-3.65,2.28
			C270.07,188.69,268.54,188.96,266.89,188.96z M266.86,184.8c0.95,0,1.82-0.16,2.61-0.48s1.49-0.79,2.1-1.39s1.07-1.32,1.4-2.14
			c0.33-0.82,0.5-1.74,0.5-2.75c0-1.01-0.17-1.92-0.5-2.75c-0.33-0.82-0.79-1.54-1.39-2.14c-0.59-0.6-1.29-1.07-2.1-1.39
			c-0.8-0.32-1.68-0.48-2.62-0.48c-0.95,0-1.82,0.16-2.61,0.48c-0.79,0.32-1.49,0.78-2.1,1.39c-0.6,0.6-1.07,1.32-1.4,2.14
			c-0.33,0.83-0.5,1.74-0.5,2.75c0,0.99,0.17,1.9,0.5,2.73c0.33,0.84,0.79,1.55,1.39,2.16c0.59,0.6,1.29,1.07,2.1,1.39
			C265.04,184.64,265.92,184.8,266.86,184.8z"/>
		<path class="st2" d="M285.21,188.6v-21.13h15.97v3.92H290.1v17.2H285.21z M289.74,180.9v-3.92h10.14v3.92H289.74z"/>
		<path class="st2" d="M307.61,188.6v-21.13h15.97v3.92H312.5v17.2H307.61z M312.14,180.9v-3.92h10.14v3.92H312.14z"/>
		<path class="st2" d="M330,188.6v-21.13h4.89v21.13H330z"/>
		<path class="st2" d="M353.12,188.96c-1.63,0-3.14-0.27-4.54-0.8c-1.4-0.53-2.61-1.29-3.64-2.28s-1.83-2.14-2.4-3.47
			s-0.86-2.79-0.86-4.38c0-1.59,0.29-3.05,0.86-4.38c0.57-1.33,1.38-2.48,2.42-3.47c1.04-0.99,2.25-1.75,3.64-2.28
			c1.39-0.53,2.91-0.8,4.56-0.8c1.83,0,3.49,0.32,4.96,0.95s2.72,1.56,3.73,2.79l-3.14,2.9c-0.72-0.82-1.53-1.44-2.42-1.86
			c-0.89-0.41-1.85-0.62-2.9-0.62c-0.99,0-1.89,0.16-2.72,0.48c-0.83,0.32-1.54,0.78-2.14,1.39c-0.6,0.6-1.07,1.32-1.4,2.14
			c-0.33,0.83-0.5,1.74-0.5,2.75c0,1.01,0.17,1.92,0.5,2.75c0.33,0.83,0.8,1.54,1.4,2.14s1.32,1.07,2.14,1.39
			c0.82,0.32,1.73,0.48,2.72,0.48c1.05,0,2.01-0.21,2.9-0.62c0.89-0.41,1.69-1.04,2.42-1.89l3.14,2.9
			c-1.01,1.23-2.25,2.16-3.73,2.81C356.64,188.64,354.97,188.96,353.12,188.96z"/>
		<path class="st2" d="M367.97,188.6v-21.13h15.97v3.92h-11.11v13.28h11.5v3.92H367.97z M372.47,179.79v-3.8h10.17v3.8H372.47z"/>
	</g>
</g>
</svg>
