<?xml version="1.0" encoding="utf-8"?>
<!-- Generator: Adobe Illustrator 25.0.0, SVG Export Plug-In . SVG Version: 6.00 Build 0)  -->
<svg version="1.1" id="Capa_1" xmlns="http://www.w3.org/2000/svg" xmlns:xlink="http://www.w3.org/1999/xlink" x="0px" y="0px"
	 viewBox="0 0 148.13 175.83" style="enable-background:new 0 0 148.13 175.83;" xml:space="preserve">
<style type="text/css">
	.st0{fill:url(#SVGID_1_);}
	.st1{fill:#FFFFFF;}
</style>
<radialGradient id="SVGID_1_" cx="23.0203" cy="9.0731" r="173.2172" gradientUnits="userSpaceOnUse">
	<stop  offset="0" style="stop-color:#1DADE4"/>
	<stop  offset="0.9726" style="stop-color:#2760AB"/>
</radialGradient>
<path class="st0" d="M111.56,5.26c-21.49,0-25.47,7.7-37.68,7.7c-12.21,0-16.19-7.7-37.68-7.7S3.3,17.74,3.3,44.01
	c0,26.27,11.41,47.41,15.92,70.8s13,56.83,28.66,56.83s4.17-60.5,24.51-60.5c0.53,0,1.02-0.08,1.5-0.21
	c0.48,0.13,0.97,0.21,1.5,0.21c20.34,0,8.85,60.5,24.51,60.5c15.66,0,24.15-33.43,28.66-56.83s15.92-44.53,15.92-70.8
	C144.46,17.74,133.05,5.26,111.56,5.26z"/>
<path class="st1" d="M31.35,75.82c2.3-2.36,5.24,2.3,11.78,7.59c7.67,6.2,15.61,9.01,26.01,9.01c26.85,0,43.57-27.64,43.57-44.51
	c0-15.87-13.4-17.1-17.7-16.35c-5.77,1-9.94,5.37-16.51,5.37s-11.53-3.77-18.74-3.77c-9.01,0-14.2,9.12-14.48,17.03
	c-0.39,11.08,7.24,28.56,5.5,29.36c-1.74,0.8-10.58-18.65-10.58-29.91s7.37-22.65,19.43-22.38c8.42,0.19,11.66,3.75,17.7,3.75
	c6.03,0,10.66-5.77,19.98-5.77c10.99,0,22.92,6.23,22.92,21.65c0,14.66-13.48,53.57-51.08,53.57c-17.48,0-29.43-7.93-34.06-13.58
	C30.48,81.29,29.65,77.55,31.35,75.82z"/>
</svg>
